<?xml version="1.0" encoding="UTF-8" standalone="no"?>
<!DOCTYPE svg PUBLIC "-//W3C//DTD SVG 1.1//EN" "http://www.w3.org/Graphics/SVG/1.1/DTD/svg11.dtd">
<svg width="100%" height="100%" viewBox="0 0 2000 2000" version="1.1" xmlns="http://www.w3.org/2000/svg" xmlns:xlink="http://www.w3.org/1999/xlink" xml:space="preserve" xmlns:serif="http://www.serif.com/" style="fill-rule:evenodd;clip-rule:evenodd;stroke-linejoin:round;stroke-miterlimit:2;">
    <g transform="matrix(0.998004,0,0,0.993542,-0.998004,6.954794)">
        <g id="Ebene1">
            <path d="M2005,194.3L2005,1804.7C2005,1915.8 1915.204,2006 1804.6,2006L201.4,2006C90.796,2006 1,1915.8 1,1804.7L1,194.3C1,83.2 90.796,-7 201.4,-7L1804.6,-7C1915.204,-7 2005,83.2 2005,194.3Z" style="fill:rgb(32,26,25);"/>
        </g>
    </g>
    <g transform="matrix(9.658947,0,0,9.658947,2432.915642,615.930785)">
        <g transform="matrix(1,0,0,1,-237.5,-70.833333)">
            <g transform="matrix(4.166667,0,0,4.166667,0,0)">
                <path d="M0,13.773C0,8.253 4.428,4.464 9.656,4.464C14.883,4.464 19.326,8.267 19.326,13.773L19.326,13.803C19.326,19.324 14.884,23.128 9.656,23.128C4.416,23.128 0,19.342 0,13.803L0,13.773ZM9.656,8.069C6.667,8.069 4.139,10.292 4.139,13.773L4.139,13.803C4.139,17.291 6.674,19.542 9.656,19.542C12.639,19.542 15.187,17.29 15.187,13.803L15.187,13.773C15.187,10.293 12.645,8.069 9.656,8.069ZM39.569,3C38.507,3 37.646,3.861 37.646,4.923C37.646,5.985 38.507,6.846 39.569,6.846C40.631,6.846 41.492,5.985 41.492,4.923C41.492,3.861 40.631,3 39.569,3ZM31.753,4.58C26.526,4.58 22.098,8.369 22.098,13.89L22.098,13.92C22.098,19.459 26.521,23.245 31.753,23.245C36.981,23.245 41.424,19.441 41.424,13.92L41.424,13.89C41.424,8.384 36.981,4.58 31.753,4.58ZM26.237,13.89C26.237,10.408 28.765,8.185 31.753,8.185C34.743,8.185 37.285,10.41 37.285,13.89L37.285,13.92C37.285,17.407 34.751,19.659 31.753,19.659C28.772,19.659 26.237,17.408 26.237,13.92L26.237,13.89ZM37.423,24.448C37.386,27.885 34.871,30.076 31.904,30.076C28.934,30.076 26.409,27.881 26.371,24.448L26.366,23.676L22.215,23.676L22.215,24.455C22.264,29.929 26.687,33.675 31.89,33.675C37.092,33.675 41.496,29.91 41.549,24.455L41.549,23.695L37.423,23.695C37.423,23.695 37.426,24.205 37.423,24.448Z" style="fill:rgb(238,0,32);"/>
            </g>
        </g>
    </g>
    <g transform="matrix(7.545263,0,0,7.545263,157.915642,1749.211487)">
        <g transform="matrix(1,0,0,1,-237.5,-70.833333)">
            <g transform="matrix(4.166667,0,0,4.166667,0,0)">
                <path d="M56.344,6.359L59.072,6.359L63.09,17.843L67.107,6.359L69.836,6.359L64.186,22L61.994,22L56.344,6.359ZM54.872,6.359L57.59,6.359L58.084,17.553L58.084,22L54.872,22L54.872,6.359ZM68.59,6.359L71.318,6.359L71.318,22L68.096,22L68.096,17.553L68.59,6.359ZM79.3,22.215C78.397,22.215 77.588,22.072 76.872,21.785C76.156,21.491 75.547,21.087 75.046,20.571C74.552,20.056 74.172,19.458 73.907,18.777C73.642,18.09 73.51,17.359 73.51,16.586L73.51,16.156C73.51,15.275 73.635,14.47 73.886,13.739C74.136,13.009 74.495,12.375 74.96,11.838C75.433,11.301 76.005,10.889 76.679,10.602C77.352,10.309 78.111,10.162 78.956,10.162C79.78,10.162 80.51,10.298 81.147,10.57C81.785,10.842 82.318,11.229 82.748,11.73C83.185,12.232 83.514,12.833 83.736,13.535C83.958,14.23 84.069,15.003 84.069,15.855L84.069,17.145L74.831,17.145L74.831,15.082L81.029,15.082L81.029,14.846C81.029,14.416 80.951,14.033 80.793,13.696C80.643,13.352 80.413,13.08 80.106,12.88C79.797,12.679 79.404,12.579 78.924,12.579C78.516,12.579 78.165,12.669 77.871,12.848C77.578,13.027 77.338,13.277 77.151,13.6C76.972,13.922 76.836,14.301 76.743,14.738C76.657,15.168 76.614,15.641 76.614,16.156L76.614,16.586C76.614,17.051 76.679,17.481 76.808,17.875C76.944,18.269 77.133,18.609 77.377,18.895C77.628,19.182 77.928,19.404 78.279,19.561C78.637,19.719 79.042,19.798 79.493,19.798C80.052,19.798 80.571,19.69 81.051,19.476C81.538,19.254 81.957,18.921 82.308,18.477L83.811,20.109C83.568,20.46 83.235,20.797 82.812,21.119C82.397,21.441 81.896,21.706 81.309,21.914C80.721,22.115 80.052,22.215 79.3,22.215ZM92.105,19.379L92.105,14.201C92.105,13.829 92.044,13.51 91.922,13.245C91.8,12.973 91.61,12.762 91.353,12.611C91.102,12.461 90.776,12.386 90.375,12.386C90.031,12.386 89.734,12.447 89.483,12.568C89.233,12.683 89.039,12.851 88.903,13.073C88.767,13.288 88.699,13.542 88.699,13.836L85.606,13.836C85.606,13.342 85.72,12.873 85.949,12.429C86.178,11.985 86.511,11.594 86.948,11.258C87.385,10.914 87.904,10.646 88.506,10.452C89.115,10.259 89.795,10.162 90.547,10.162C91.449,10.162 92.251,10.312 92.953,10.613C93.655,10.914 94.206,11.365 94.607,11.967C95.016,12.568 95.22,13.32 95.22,14.223L95.22,19.196C95.22,19.834 95.259,20.356 95.338,20.765C95.417,21.166 95.531,21.517 95.682,21.817L95.682,22L92.556,22C92.405,21.685 92.291,21.291 92.212,20.818C92.14,20.338 92.105,19.859 92.105,19.379ZM92.513,14.921L92.534,16.672L90.805,16.672C90.397,16.672 90.042,16.718 89.741,16.811C89.44,16.905 89.193,17.037 89,17.209C88.807,17.374 88.663,17.567 88.57,17.789C88.484,18.011 88.441,18.255 88.441,18.52C88.441,18.785 88.502,19.024 88.624,19.239C88.746,19.447 88.921,19.612 89.15,19.733C89.38,19.848 89.648,19.905 89.956,19.905C90.421,19.905 90.826,19.812 91.17,19.626C91.514,19.44 91.779,19.211 91.965,18.939C92.158,18.666 92.258,18.409 92.266,18.165L93.082,19.476C92.967,19.769 92.81,20.074 92.609,20.389C92.416,20.704 92.169,21.001 91.868,21.28C91.567,21.552 91.206,21.778 90.783,21.957C90.361,22.129 89.859,22.215 89.279,22.215C88.542,22.215 87.872,22.068 87.27,21.774C86.676,21.474 86.204,21.062 85.853,20.539C85.509,20.009 85.337,19.408 85.337,18.734C85.337,18.126 85.451,17.585 85.681,17.112C85.91,16.64 86.246,16.242 86.69,15.92C87.142,15.591 87.704,15.343 88.377,15.179C89.05,15.007 89.831,14.921 90.719,14.921L92.513,14.921ZM100.87,5.5L100.87,22L97.766,22L97.766,5.5L100.87,5.5ZM109.711,18.788C109.711,18.566 109.646,18.366 109.518,18.186C109.389,18.008 109.149,17.843 108.798,17.692C108.454,17.535 107.956,17.392 107.305,17.263C106.717,17.134 106.17,16.973 105.661,16.779C105.16,16.579 104.723,16.339 104.351,16.06C103.985,15.78 103.699,15.451 103.491,15.071C103.284,14.685 103.18,14.244 103.18,13.75C103.18,13.263 103.284,12.805 103.491,12.375C103.706,11.945 104.01,11.566 104.404,11.236C104.805,10.9 105.292,10.638 105.865,10.452C106.445,10.259 107.097,10.162 107.82,10.162C108.83,10.162 109.697,10.323 110.42,10.646C111.15,10.968 111.709,11.412 112.096,11.977C112.49,12.536 112.687,13.174 112.687,13.89L109.593,13.89C109.593,13.589 109.528,13.32 109.399,13.084C109.278,12.841 109.084,12.651 108.819,12.515C108.562,12.371 108.225,12.3 107.81,12.3C107.466,12.3 107.169,12.361 106.918,12.482C106.667,12.597 106.474,12.755 106.338,12.955C106.209,13.148 106.145,13.363 106.145,13.6C106.145,13.779 106.18,13.94 106.252,14.083C106.331,14.219 106.456,14.344 106.628,14.459C106.8,14.574 107.022,14.681 107.294,14.781C107.573,14.874 107.917,14.96 108.325,15.039C109.163,15.211 109.911,15.437 110.57,15.716C111.229,15.988 111.752,16.36 112.139,16.833C112.525,17.299 112.719,17.911 112.719,18.67C112.719,19.186 112.604,19.658 112.375,20.088C112.146,20.518 111.816,20.894 111.387,21.216C110.957,21.531 110.441,21.778 109.84,21.957C109.245,22.129 108.576,22.215 107.831,22.215C106.75,22.215 105.833,22.021 105.081,21.635C104.336,21.248 103.771,20.758 103.384,20.163C103.004,19.561 102.814,18.946 102.814,18.315L105.747,18.315C105.761,18.738 105.869,19.078 106.069,19.336C106.277,19.594 106.538,19.78 106.854,19.895C107.176,20.009 107.523,20.066 107.896,20.066C108.297,20.066 108.63,20.013 108.895,19.905C109.16,19.791 109.36,19.64 109.496,19.454C109.639,19.261 109.711,19.039 109.711,18.788Z" style="fill:rgb(238,0,32);fill-rule:nonzero;"/>
            </g>
        </g>
    </g>
</svg>
