<svg width="114" height="34" viewBox="0 0 114 34" xmlns="http://www.w3.org/2000/svg">
  <path d="M0 13.7734C0 8.25279 4.42773 4.46385 9.65569 4.46385C14.8833 4.46385 19.3264 8.26748 19.3264 13.7734V13.8035C19.3264 19.324 14.8837 23.128 9.65569 23.128C4.4158 23.128 0 19.3423 0 13.8035V13.7734ZM9.65569 8.06874C6.66749 8.06874 4.13923 10.2918 4.13923 13.7734V13.8035C4.13923 17.2914 6.67383 19.542 9.65569 19.542C12.6388 19.542 15.1872 17.2901 15.1872 13.8035V13.7734C15.1872 10.293 12.6452 8.06874 9.65569 8.06874ZM39.5691 3C38.5071 3 37.6462 3.86089 37.6462 4.92286C37.6462 5.98482 38.5071 6.84572 39.5691 6.84572C40.631 6.84572 41.492 5.98482 41.492 4.92286C41.492 3.86089 40.631 3 39.5691 3ZM31.7535 4.5805C26.5256 4.5805 22.0978 8.36944 22.0978 13.89V13.9201C22.0978 19.4591 26.5214 23.2447 31.7535 23.2447C36.9815 23.2447 41.4243 19.4406 41.4243 13.9201V13.89C41.4243 8.38414 36.9811 4.5805 31.7535 4.5805ZM26.2371 13.89C26.2371 10.4084 28.7653 8.18539 31.7535 8.18539C34.743 8.18539 37.285 10.4097 37.285 13.89V13.9201C37.285 17.4074 34.7511 19.6586 31.7535 19.6586C28.7717 19.6586 26.2371 17.408 26.2371 13.9201V13.89ZM37.4232 24.4479C37.3856 27.8848 34.8709 30.0757 31.9045 30.0757C28.9344 30.0757 26.4085 27.8811 26.3708 24.4479L26.3662 23.6762H25.6029H22.2149V24.4554C22.2638 29.9289 26.687 33.6745 31.8895 33.6745C37.0919 33.6745 41.4963 29.9101 41.549 24.4554V23.695H37.4232C37.4232 23.695 37.4259 24.2047 37.4232 24.4479Z" fill="#EE0020" fill-rule="evenodd" />
  <path d="M56.3438 6.35938H59.0723L63.0898 17.8428L67.1074 6.35938H69.8359L64.1855 22H61.9941L56.3438 6.35938ZM54.8721 6.35938H57.5898L58.084 17.5527V22H54.8721V6.35938ZM68.5898 6.35938H71.3184V22H68.0957V17.5527L68.5898 6.35938ZM79.2998 22.2148C78.3975 22.2148 77.5882 22.0716 76.8721 21.7852C76.1559 21.4915 75.5472 21.0869 75.0459 20.5713C74.5518 20.0557 74.1722 19.4577 73.9072 18.7773C73.6423 18.0898 73.5098 17.3594 73.5098 16.5859V16.1562C73.5098 15.2754 73.6351 14.4697 73.8857 13.7393C74.1364 13.0088 74.4945 12.375 74.96 11.8379C75.4326 11.3008 76.0055 10.889 76.6787 10.6025C77.3519 10.3089 78.111 10.1621 78.9561 10.1621C79.7796 10.1621 80.5101 10.2982 81.1475 10.5703C81.7848 10.8424 82.3184 11.2292 82.748 11.7305C83.1849 12.2318 83.5143 12.8333 83.7363 13.5352C83.9583 14.2298 84.0693 15.0033 84.0693 15.8555V17.1445H74.8311V15.082H81.0293V14.8457C81.0293 14.416 80.9505 14.0329 80.793 13.6963C80.6426 13.3525 80.4134 13.0804 80.1055 12.8799C79.7975 12.6794 79.4036 12.5791 78.9238 12.5791C78.5156 12.5791 78.1647 12.6686 77.8711 12.8477C77.5775 13.0267 77.3376 13.2773 77.1514 13.5996C76.9723 13.9219 76.8363 14.3014 76.7432 14.7383C76.6572 15.168 76.6143 15.6406 76.6143 16.1562V16.5859C76.6143 17.0514 76.6787 17.4811 76.8076 17.875C76.9437 18.2689 77.1335 18.609 77.377 18.8955C77.6276 19.182 77.9284 19.404 78.2793 19.5615C78.6374 19.7191 79.042 19.7979 79.4932 19.7979C80.0518 19.7979 80.571 19.6904 81.0508 19.4756C81.5378 19.2536 81.9567 18.9206 82.3076 18.4766L83.8115 20.1094C83.568 20.4603 83.235 20.7969 82.8125 21.1191C82.3971 21.4414 81.8958 21.7064 81.3086 21.9141C80.7214 22.1146 80.0518 22.2148 79.2998 22.2148ZM92.1045 19.3789V14.2012C92.1045 13.8288 92.0436 13.5101 91.9219 13.2451C91.8001 12.973 91.6104 12.7617 91.3525 12.6113C91.1019 12.4609 90.776 12.3857 90.375 12.3857C90.0312 12.3857 89.734 12.4466 89.4834 12.5684C89.2327 12.6829 89.0394 12.8512 88.9033 13.0732C88.7673 13.2881 88.6992 13.5423 88.6992 13.8359H85.6055C85.6055 13.3418 85.7201 12.8727 85.9492 12.4287C86.1784 11.9847 86.5114 11.5944 86.9482 11.2578C87.3851 10.9141 87.9043 10.6455 88.5059 10.4521C89.1146 10.2588 89.7949 10.1621 90.5469 10.1621C91.4492 10.1621 92.2513 10.3125 92.9531 10.6133C93.6549 10.9141 94.2064 11.3652 94.6074 11.9668C95.0156 12.5684 95.2197 13.3203 95.2197 14.2227V19.1963C95.2197 19.8337 95.2591 20.3564 95.3379 20.7646C95.4167 21.1657 95.5312 21.5166 95.6816 21.8174V22H92.5557C92.4053 21.6849 92.2907 21.291 92.2119 20.8184C92.1403 20.3385 92.1045 19.8587 92.1045 19.3789ZM92.5127 14.9209L92.5342 16.6719H90.8047C90.3965 16.6719 90.042 16.7184 89.7412 16.8115C89.4404 16.9046 89.1934 17.0371 89 17.209C88.8066 17.3737 88.6634 17.5671 88.5703 17.7891C88.4844 18.0111 88.4414 18.2546 88.4414 18.5195C88.4414 18.7845 88.5023 19.0244 88.624 19.2393C88.7458 19.4469 88.9212 19.6117 89.1504 19.7334C89.3796 19.848 89.6481 19.9053 89.9561 19.9053C90.4215 19.9053 90.8262 19.8122 91.1699 19.626C91.5137 19.4398 91.7786 19.2106 91.9648 18.9385C92.1582 18.6663 92.2585 18.4085 92.2656 18.165L93.082 19.4756C92.9674 19.7692 92.8099 20.0736 92.6094 20.3887C92.416 20.7038 92.1689 21.001 91.8682 21.2803C91.5674 21.5524 91.2057 21.778 90.7832 21.957C90.3607 22.1289 89.8594 22.2148 89.2793 22.2148C88.5417 22.2148 87.8721 22.068 87.2705 21.7744C86.6761 21.4736 86.2035 21.0618 85.8525 20.5391C85.5088 20.0091 85.3369 19.4076 85.3369 18.7344C85.3369 18.1257 85.4515 17.585 85.6807 17.1123C85.9098 16.6396 86.2464 16.2422 86.6904 15.9199C87.1416 15.5905 87.7038 15.3434 88.377 15.1787C89.0501 15.0068 89.8307 14.9209 90.7188 14.9209H92.5127ZM100.87 5.5V22H97.7656V5.5H100.87ZM109.711 18.7881C109.711 18.5661 109.646 18.3656 109.518 18.1865C109.389 18.0075 109.149 17.8428 108.798 17.6924C108.454 17.5348 107.956 17.3916 107.305 17.2627C106.717 17.1338 106.17 16.9727 105.661 16.7793C105.16 16.5788 104.723 16.3389 104.351 16.0596C103.985 15.7803 103.699 15.4508 103.491 15.0713C103.284 14.6846 103.18 14.2441 103.18 13.75C103.18 13.263 103.284 12.8047 103.491 12.375C103.706 11.9453 104.01 11.5658 104.404 11.2363C104.805 10.8997 105.292 10.6383 105.865 10.4521C106.445 10.2588 107.097 10.1621 107.82 10.1621C108.83 10.1621 109.697 10.3232 110.42 10.6455C111.15 10.9678 111.709 11.4118 112.096 11.9775C112.49 12.5361 112.687 13.1735 112.687 13.8896H109.593C109.593 13.5889 109.528 13.3203 109.399 13.084C109.278 12.8405 109.084 12.6507 108.819 12.5146C108.562 12.3714 108.225 12.2998 107.81 12.2998C107.466 12.2998 107.169 12.3607 106.918 12.4824C106.667 12.597 106.474 12.7546 106.338 12.9551C106.209 13.1484 106.145 13.3633 106.145 13.5996C106.145 13.7786 106.18 13.9398 106.252 14.083C106.331 14.2191 106.456 14.3444 106.628 14.459C106.8 14.5736 107.022 14.681 107.294 14.7812C107.573 14.8743 107.917 14.9603 108.325 15.0391C109.163 15.2109 109.911 15.4365 110.57 15.7158C111.229 15.988 111.752 16.3604 112.139 16.833C112.525 17.2985 112.719 17.9108 112.719 18.6699C112.719 19.1855 112.604 19.6582 112.375 20.0879C112.146 20.5176 111.816 20.8936 111.387 21.2158C110.957 21.5309 110.441 21.778 109.84 21.957C109.245 22.1289 108.576 22.2148 107.831 22.2148C106.75 22.2148 105.833 22.0215 105.081 21.6348C104.336 21.248 103.771 20.7575 103.384 20.1631C103.004 19.5615 102.814 18.9456 102.814 18.3154H105.747C105.761 18.738 105.869 19.0781 106.069 19.3359C106.277 19.5938 106.538 19.7799 106.854 19.8945C107.176 20.0091 107.523 20.0664 107.896 20.0664C108.297 20.0664 108.63 20.0127 108.895 19.9053C109.16 19.7907 109.36 19.6403 109.496 19.4541C109.639 19.2607 109.711 19.0387 109.711 18.7881Z" fill="#EE0020" />
</svg>